<svg width="205" height="192" viewBox="0 0 205 192" fill="none" xmlns="http://www.w3.org/2000/svg">
<path d="M73.7098 0.943232C76.781 2.73479 77.6768 6.70181 75.8852 9.77305L43.2533 64.0316H161.368L128.864 9.77305C127.073 6.70181 128.096 2.86276 131.04 0.943232C133.983 -0.976294 137.95 0.175421 139.869 3.11869L176.468 64.0316H192.081C199.119 64.0316 204.877 69.7902 204.877 76.8285V89.6253C204.877 96.6636 199.119 102.422 192.081 102.422V160.008C192.081 177.668 177.748 192 160.088 192H44.7889C27.1293 192 12.7968 177.668 12.7968 160.008V102.422C5.75858 102.422 0 96.6636 0 89.6253V76.8285C0 69.7902 5.75858 64.0316 12.7968 64.0316H28.409L64.88 3.11869C66.6715 0.047453 70.6385 -0.848325 73.7098 0.943232ZM25.5937 102.422V160.008C25.5937 170.629 34.1676 179.203 44.7889 179.203H159.96C170.582 179.203 179.156 170.629 179.156 160.008V102.422H25.5937ZM12.7968 76.8285V89.6253H191.953V76.8285H12.7968ZM51.1874 115.219C54.7705 115.219 57.5858 118.034 57.5858 121.617V160.008C57.5858 163.591 54.7705 166.406 51.1874 166.406C47.6042 166.406 44.7889 163.591 44.7889 160.008V121.617C44.7889 118.034 47.6042 115.219 51.1874 115.219ZM76.781 115.219C80.3641 115.219 83.1794 118.034 83.1794 121.617V160.008C83.1794 163.591 80.3641 166.406 76.781 166.406C73.1979 166.406 70.3826 163.591 70.3826 160.008V121.617C70.3826 118.034 73.1979 115.219 76.781 115.219ZM102.375 115.219C105.958 115.219 108.773 118.034 108.773 121.617V160.008C108.773 163.591 105.958 166.406 102.375 166.406C98.7916 166.406 95.9763 163.591 95.9763 160.008V121.617C95.9763 118.034 98.7916 115.219 102.375 115.219ZM127.968 115.219C131.551 115.219 134.367 118.034 134.367 121.617V160.008C134.367 163.591 131.551 166.406 127.968 166.406C124.385 166.406 121.57 163.591 121.57 160.008V121.617C121.57 118.034 124.385 115.219 127.968 115.219ZM153.562 115.219C157.145 115.219 159.96 118.034 159.96 121.617V160.008C159.96 163.591 157.145 166.406 153.562 166.406C149.979 166.406 147.164 163.591 147.164 160.008V121.617C147.164 118.034 149.979 115.219 153.562 115.219Z" fill="#1F002A"/>
</svg>
